<mxfile host="app.diagrams.net" modified="2024-07-16T13:47:55.807Z" agent="Mozilla/5.0 (Windows NT 10.0; Win64; x64) AppleWebKit/537.36 (KHTML, like Gecko) Chrome/126.0.0.0 Safari/537.36" version="24.6.5" etag="XyyuVytMwPRo_NhD9Cu2" type="github">
  <diagram name="Page-1" id="FLNssM7hqwjOyUQWYx5u">
    <mxGraphModel>
      <root>
        <mxCell id="0" />
        <mxCell id="1" parent="0" />
      </root>
    </mxGraphModel>
  </diagram>
</mxfile>
